<svg width="189" height="49" viewBox="0 0 189 49" fill="none" xmlns="http://www.w3.org/2000/svg">
<g clip-path="url(#clip0_945_972)">
<path d="M16.6164 0.893616L0 26.0013V0.893616H16.6164Z" fill="#E31837"/>
<path d="M17.0597 22.9034V49.067C12.1394 47.9664 7.84609 45.217 4.79785 41.431L17.0597 22.9034Z" fill="#E31837"/>
<path d="M43.2472 0.893616V28.3232C43.2472 37.2921 37.67 44.9638 29.7793 48.093V0.893616H43.2472Z" fill="#E31837"/>
<path d="M70.0837 19.6283V7.31274L64.7504 15.3702H64.6427L59.3632 7.39465V19.6283H55.248V0.765503H59.7418L64.7235 8.74252L69.7036 0.765503H74.1974V19.6283H70.0837Z" fill="black"/>
<path d="M86.814 19.6283V18.066C86.3082 18.623 85.7036 19.0683 85.0003 19.4004C84.297 19.7326 83.4395 19.8994 82.4279 19.8994C81.7426 19.8994 81.0961 19.8055 80.4915 19.6164C79.887 19.4272 79.3587 19.1443 78.9083 18.7675C78.4564 18.3906 78.1002 17.9275 77.8384 17.3794C77.5765 16.8313 77.4463 16.1983 77.4463 15.4789V15.4253C77.4463 14.6345 77.5899 13.9523 77.8788 13.3774C78.1676 12.8026 78.5686 12.326 79.0834 11.9492C79.5982 11.5723 80.2117 11.2894 80.924 11.1002C81.6363 10.9111 82.4264 10.8172 83.2929 10.8172C84.0321 10.8172 84.6771 10.8709 85.2293 10.9796C85.7799 11.0868 86.3157 11.2313 86.8394 11.41V11.1672C86.8394 10.3049 86.5775 9.64958 86.0538 9.19979C85.53 8.75149 84.7549 8.5266 83.7253 8.5266C82.9307 8.5266 82.2319 8.59362 81.6273 8.72915C81.0228 8.8632 80.3868 9.05681 79.7194 9.30851L78.6913 6.18234C79.4859 5.84128 80.315 5.56277 81.1814 5.34681C82.0478 5.13085 83.0938 5.02362 84.3224 5.02362C86.5775 5.02362 88.2206 5.57171 89.2502 6.66788C90.2782 7.76405 90.793 9.29064 90.793 11.2492V19.6298H86.814V19.6283ZM86.8948 13.8079C86.5342 13.6455 86.1316 13.516 85.6902 13.4177C85.2472 13.3194 84.7743 13.2687 84.2685 13.2687C83.3842 13.2687 82.6883 13.44 82.184 13.7811C81.6782 14.1221 81.4253 14.6166 81.4253 15.263V15.3166C81.4253 15.8736 81.6318 16.3055 82.0478 16.6094C82.4623 16.9147 83.0041 17.0681 83.6715 17.0681C84.6457 17.0681 85.4268 16.8343 86.0134 16.3681C86.6 15.9004 86.8933 15.2898 86.8933 14.5362V13.8079H86.8948Z" fill="black"/>
<path d="M103.517 19.6283V11.5902C103.517 10.6221 103.3 9.89232 102.868 9.39934C102.435 8.90636 101.82 8.66062 101.027 8.66062C100.232 8.66062 99.6053 8.90785 99.1459 9.39934C98.685 9.89232 98.456 10.6221 98.456 11.5902V19.6268H94.3408V-0.0432129H98.456V7.2487C98.691 6.94189 98.9468 6.647 99.2282 6.367C99.508 6.087 99.8193 5.83828 100.162 5.62083C100.505 5.40338 100.883 5.23211 101.299 5.10551C101.714 4.97891 102.184 4.91487 102.707 4.91487C104.277 4.91487 105.491 5.39147 106.348 6.34317C107.206 7.29636 107.634 8.607 107.634 10.2781V19.6283H103.517Z" fill="black"/>
<path d="M111.287 3.5953V-0.0432129H115.619V3.5953H111.287ZM111.395 19.6283V5.18445H115.51V19.6283H111.395Z" fill="black"/>
<path d="M128.559 19.6283V11.5902C128.559 10.6221 128.342 9.8923 127.91 9.39932C127.477 8.90635 126.862 8.6606 126.069 8.6606C125.274 8.6606 124.647 8.90783 124.188 9.39932C123.727 9.8923 123.498 10.6221 123.498 11.5902V19.6268H119.383V5.18443H123.498V7.24869C123.733 6.94188 123.989 6.64698 124.27 6.36698C124.55 6.08698 124.861 5.83826 125.204 5.62081C125.547 5.40337 125.925 5.23209 126.341 5.10549C126.756 4.9789 127.226 4.91486 127.749 4.91486C129.319 4.91486 130.533 5.39145 131.39 6.34315C132.248 7.29635 132.676 8.60698 132.676 10.278V19.6283H128.559Z" fill="black"/>
<path d="M146.724 19.6283V17.5715C146.218 18.2491 145.609 18.8061 144.897 19.2425C144.183 19.6789 143.286 19.8979 142.203 19.8979C141.354 19.8979 140.533 19.7355 139.74 19.4123C138.945 19.0891 138.242 18.6081 137.628 17.9706C137.015 17.3332 136.522 16.5513 136.153 15.6264C135.783 14.7015 135.598 13.6366 135.598 12.4332V12.3796C135.598 11.1761 135.783 10.1113 136.153 9.18636C136.522 8.26147 137.01 7.47955 137.615 6.84211C138.219 6.20466 138.918 5.7236 139.713 5.4004C140.507 5.07721 141.336 4.91487 142.203 4.91487C143.304 4.91487 144.211 5.12934 144.923 5.55679C145.636 5.98423 146.236 6.48466 146.724 7.0536V-0.0432129H150.839V19.6283H146.724ZM146.778 12.3796C146.778 11.7823 146.683 11.2357 146.493 10.7383C146.303 10.2408 146.05 9.81636 145.735 9.46338C145.419 9.1104 145.049 8.83934 144.624 8.65019C144.201 8.45955 143.744 8.36572 143.256 8.36572C142.769 8.36572 142.314 8.46104 141.889 8.65019C141.465 8.83934 141.09 9.11189 140.765 9.46338C140.44 9.81636 140.183 10.2364 139.993 10.7249C139.803 11.2134 139.708 11.7644 139.708 12.3796V12.4332C139.708 13.0304 139.803 13.577 139.993 14.0744C140.183 14.5719 140.439 14.9964 140.765 15.3493C141.09 15.7023 141.464 15.9734 141.889 16.1625C142.312 16.3517 142.769 16.447 143.256 16.447C143.744 16.447 144.199 16.3517 144.624 16.1625C145.048 15.9734 145.419 15.7008 145.735 15.3493C146.05 14.9964 146.303 14.5719 146.493 14.0744C146.683 13.577 146.778 13.0304 146.778 12.4332V12.3796Z" fill="black"/>
<path d="M163.049 9.19977C161.676 9.19977 160.599 9.61381 159.813 10.4389C159.028 11.2655 158.636 12.5493 158.636 14.2919V19.6268H154.521V5.18445H158.636V8.09466C159.05 7.10721 159.619 6.31636 160.342 5.7236C161.063 5.13083 162.037 4.86126 163.266 4.91487V9.19977H163.049Z" fill="black"/>
<path d="M174.337 19.6283V18.066C173.832 18.623 173.227 19.0683 172.524 19.4004C171.82 19.7326 170.963 19.8994 169.951 19.8994C169.266 19.8994 168.62 19.8055 168.015 19.6164C167.41 19.4272 166.882 19.1443 166.432 18.7675C165.98 18.3906 165.624 17.9275 165.362 17.3794C165.1 16.8313 164.97 16.1983 164.97 15.4789V15.4253C164.97 14.6345 165.113 13.9523 165.402 13.3774C165.691 12.8026 166.092 12.326 166.607 11.9492C167.122 11.5723 167.735 11.2894 168.447 11.1002C169.16 10.9111 169.95 10.8172 170.816 10.8172C171.556 10.8172 172.201 10.8709 172.751 10.9796C173.302 11.0868 173.838 11.2313 174.361 11.41V11.1672C174.361 10.3049 174.099 9.64958 173.576 9.19979C173.052 8.75149 172.277 8.5266 171.247 8.5266C170.453 8.5266 169.754 8.59362 169.149 8.72915C168.545 8.8632 167.909 9.05681 167.241 9.30851L166.213 6.18234C167.008 5.84128 167.837 5.56277 168.703 5.34681C169.57 5.13085 170.616 5.02362 171.844 5.02362C174.101 5.02362 175.743 5.57171 176.772 6.66788C177.802 7.76405 178.315 9.29064 178.315 11.2492V19.6298H174.337V19.6283ZM174.418 13.8079C174.058 13.6455 173.655 13.516 173.214 13.4177C172.771 13.3194 172.298 13.2687 171.792 13.2687C170.908 13.2687 170.213 13.44 169.707 13.7811C169.202 14.1221 168.949 14.6166 168.949 15.263V15.3166C168.949 15.8736 169.157 16.3055 169.571 16.6094C169.986 16.9147 170.527 17.0681 171.195 17.0681C172.169 17.0681 172.95 16.8343 173.537 16.3681C174.123 15.9004 174.417 15.2898 174.417 14.5362V13.8079H174.418Z" fill="black"/>
<path d="M63.8486 31.701C63.8486 32.5052 63.7364 33.2127 63.5134 33.8218C63.289 34.431 62.9747 34.9389 62.5692 35.3469C62.1636 35.755 61.6728 36.0589 61.0952 36.2599C60.5176 36.461 59.8711 36.5623 59.1528 36.5623C58.445 36.5623 57.806 36.461 57.2344 36.2599C56.6627 36.0589 56.1734 35.7565 55.7679 35.3544C55.3623 34.9523 55.0511 34.4548 54.8326 33.8606C54.6141 33.2678 54.5049 32.5782 54.5049 31.7948V25.5574H56.4084V31.7174C56.4084 32.7286 56.6538 33.4972 57.1461 34.0229C57.6369 34.5486 58.3178 34.8123 59.1857 34.8123C60.0432 34.8123 60.7181 34.5591 61.2089 34.0542C61.6998 33.5493 61.9467 32.7957 61.9467 31.7948V25.5574H63.8501V31.701H63.8486Z" fill="black"/>
<path d="M68.1691 36.3895H66.2656V28.2174H68.1691V29.4997C68.3038 29.3016 68.4519 29.117 68.612 28.9457C68.7722 28.7744 68.9592 28.621 69.1717 28.4855C69.3842 28.3499 69.6176 28.2427 69.872 28.1653C70.1264 28.0878 70.4137 28.0476 70.7355 28.0476C71.6693 28.0476 72.389 28.3321 72.8978 28.8995C73.4051 29.467 73.6595 30.231 73.6595 31.1902V36.391H71.7561V31.7591C71.7561 31.1202 71.6034 30.6287 71.2996 30.2846C70.9959 29.9391 70.5649 29.7678 70.0082 29.7678C69.462 29.7678 69.0191 29.9451 68.6779 30.301C68.3382 30.657 68.1676 31.1529 68.1676 31.7904V36.3895H68.1691Z" fill="black"/>
<path d="M75.9668 26.9648V25.1851H78.0094V26.9648H75.9668ZM76.0446 36.3895V28.2174H77.9481V36.3895H76.0446Z" fill="black"/>
<path d="M86.0903 28.2174H88.0715L84.7031 36.4521H83.0031L79.6182 28.2174H81.6458L83.8606 34.2225L86.0903 28.2174Z" fill="black"/>
<path d="M91.4549 34.51C91.8814 34.8659 92.4007 35.0446 93.0142 35.0446C93.4826 35.0446 93.8881 34.9627 94.2308 34.7974C94.5735 34.6321 94.9117 34.3893 95.2439 34.0706L96.3513 35.0461C95.9562 35.5108 95.4848 35.8817 94.9401 36.1602C94.3939 36.4387 93.7415 36.5787 92.9828 36.5787C92.3902 36.5787 91.8365 36.4759 91.3217 36.2689C90.807 36.0619 90.3595 35.7729 89.9809 35.4021C89.6008 35.0312 89.303 34.5844 89.0846 34.0632C88.8661 33.5419 88.7568 32.9625 88.7568 32.3221C88.7568 31.7338 88.8556 31.1812 89.0531 30.6659C89.2507 30.1506 89.529 29.6978 89.8881 29.3121C90.2473 28.9249 90.6708 28.618 91.1586 28.3917C91.648 28.1653 92.1882 28.0506 92.7808 28.0506C93.4362 28.0506 94.0108 28.1697 94.5047 28.4066C94.9985 28.6434 95.41 28.9636 95.7362 29.3657C96.0624 29.7678 96.3109 30.2385 96.477 30.7746C96.6431 31.3108 96.7269 31.8738 96.7269 32.4621C96.7269 32.5455 96.7239 32.6274 96.7194 32.7093C96.7134 32.7927 96.7059 32.8791 96.6954 32.9729H90.6438C90.7591 33.6402 91.0284 34.154 91.4549 34.51ZM94.8563 31.7308C94.8249 31.4315 94.7576 31.15 94.6543 30.8878C94.5495 30.6242 94.4104 30.3978 94.2338 30.2072C94.0572 30.0166 93.8462 29.8646 93.6023 29.75C93.3584 29.6368 93.08 29.5802 92.7673 29.5802C92.1852 29.5802 91.7033 29.7783 91.3247 30.1759C90.9446 30.5736 90.7142 31.0919 90.6304 31.7308H94.8563Z" fill="black"/>
<path d="M100.532 36.3895H98.6299V28.2174H100.533V30.0598C100.794 29.4402 101.162 28.9457 101.641 28.5734C102.12 28.2025 102.721 28.0312 103.45 28.0625V30.0434H103.341C102.925 30.0434 102.545 30.1104 102.202 30.2444C101.859 30.3785 101.563 30.5795 101.313 30.8476C101.063 31.1157 100.87 31.4538 100.735 31.8619C100.601 32.27 100.533 32.7421 100.533 33.2783V36.3895H100.532Z" fill="black"/>
<path d="M110.718 35.1057C110.563 35.4259 110.346 35.691 110.07 35.9025C109.795 36.114 109.47 36.2733 109.096 36.3821C108.722 36.4908 108.321 36.5444 107.895 36.5444C107.302 36.5444 106.702 36.4416 106.093 36.2346C105.484 36.0291 104.92 35.7238 104.4 35.3216L105.243 34.0527C105.69 34.3833 106.145 34.6336 106.608 34.8033C107.07 34.9731 107.514 35.058 107.941 35.058C108.347 35.058 108.661 34.9776 108.885 34.8182C109.108 34.6589 109.22 34.4444 109.22 34.1763V34.1451C109.22 33.9902 109.171 33.8561 109.072 33.7429C108.974 33.6297 108.839 33.5285 108.667 33.4406C108.495 33.3527 108.297 33.2753 108.074 33.2082C107.851 33.1412 107.619 33.0712 107.38 32.9997C107.078 32.9074 106.774 32.8031 106.467 32.6899C106.16 32.5768 105.885 32.4293 105.641 32.2491C105.397 32.0689 105.196 31.847 105.041 31.5833C104.885 31.3197 104.807 30.9921 104.807 30.6004V30.5691C104.807 30.1878 104.882 29.8423 105.033 29.5325C105.185 29.2227 105.393 28.9591 105.657 28.7431C105.922 28.5272 106.235 28.3619 106.593 28.2472C106.952 28.134 107.333 28.0774 107.739 28.0774C108.258 28.0774 108.783 28.1608 109.315 28.3246C109.844 28.4899 110.328 28.7163 110.765 29.0053L110.017 30.3368C109.621 30.0999 109.22 29.9108 108.815 29.7723C108.409 29.6338 108.035 29.5638 107.693 29.5638C107.329 29.5638 107.045 29.6412 106.843 29.7961C106.639 29.951 106.539 30.1476 106.539 30.3844V30.4157C106.539 30.5602 106.591 30.6868 106.694 30.7955C106.798 30.9042 106.937 31.0025 107.107 31.0889C107.28 31.1768 107.477 31.2587 107.7 31.3361C107.923 31.4136 108.155 31.488 108.394 31.561C108.695 31.6534 108.997 31.7621 109.298 31.8857C109.599 32.0093 109.873 32.1612 110.117 32.3429C110.361 32.5231 110.561 32.7436 110.717 33.0012C110.872 33.2589 110.95 33.5731 110.95 33.9455V33.9768C110.952 34.4087 110.874 34.7855 110.718 35.1057Z" fill="black"/>
<path d="M112.901 26.9648V25.1851H114.944V26.9648H112.901ZM112.979 36.3895V28.2174H114.883V36.3895H112.979Z" fill="black"/>
<path d="M119.624 33.8338C119.624 34.1957 119.712 34.4578 119.889 34.6172C120.065 34.778 120.315 34.8585 120.637 34.8585C121.042 34.8585 121.433 34.7661 121.807 34.58V36.1125C121.568 36.2466 121.313 36.3493 121.042 36.4223C120.772 36.4938 120.46 36.531 120.107 36.531C119.764 36.531 119.446 36.4893 119.152 36.4074C118.859 36.324 118.605 36.19 118.389 36.0038C118.174 35.8176 118.009 35.5719 117.894 35.2666C117.779 34.9612 117.72 34.5814 117.72 34.1257V29.8125H116.676V28.2189H117.72V25.9744H119.624V28.2189H121.838V29.8125H119.624V33.8338Z" fill="black"/>
<path d="M128.125 36.6219C127.959 37.0449 127.787 37.4008 127.611 37.6897C127.434 37.9787 127.237 38.214 127.018 38.3942C126.8 38.5744 126.56 38.7055 126.301 38.7889C126.041 38.8708 125.745 38.9125 125.412 38.9125C125.017 38.9125 124.666 38.8678 124.359 38.78C124.052 38.6906 123.753 38.5685 123.463 38.4121L124.102 37.0091C124.278 37.1014 124.458 37.1759 124.64 37.234C124.823 37.2906 125.011 37.3189 125.209 37.3189C125.48 37.3189 125.703 37.2519 125.879 37.1178C126.056 36.9838 126.222 36.7366 126.378 36.3761L122.946 28.2174H124.959L127.298 34.2851L129.435 28.2174H131.4L128.125 36.6219Z" fill="black"/>
<path d="M58.6874 48.0557C58.3312 48.2106 57.9317 48.2881 57.4887 48.2881C57.0757 48.2881 56.7061 48.2196 56.3799 48.081C56.0536 47.944 55.7753 47.7534 55.5434 47.5121C55.3114 47.2708 55.1348 46.9879 55.0136 46.6632C54.8909 46.3385 54.8311 45.9915 54.8311 45.6221C54.8311 45.2676 54.8939 44.9281 55.0211 44.6034C55.1483 44.2787 55.3264 43.9928 55.5553 43.747C55.7843 43.5013 56.0596 43.3047 56.3814 43.1602C56.7031 43.0157 57.0607 42.9427 57.4543 42.9427C57.6728 42.9427 57.8733 42.9576 58.0559 42.9874C58.2369 43.0172 58.4075 43.0619 58.5647 43.12C58.7218 43.1796 58.8684 43.2511 59.0061 43.3374C59.1438 43.4238 59.277 43.5206 59.4057 43.6293L59.0241 44.0732C58.9238 43.9838 58.8191 43.9049 58.7098 43.8334C58.6006 43.7619 58.4824 43.7008 58.3552 43.6487C58.228 43.5966 58.0888 43.5564 57.9362 43.5266C57.7835 43.4968 57.6159 43.4819 57.4319 43.4819C57.1431 43.4819 56.8767 43.5385 56.6328 43.6517C56.3888 43.7649 56.1793 43.9183 56.0058 44.1104C55.8307 44.3025 55.6945 44.5289 55.5942 44.7881C55.494 45.0472 55.4446 45.3213 55.4446 45.6132C55.4446 45.9245 55.4925 46.2119 55.5897 46.4755C55.687 46.7391 55.8247 46.967 56.0043 47.1606C56.1838 47.3542 56.4008 47.5032 56.6537 47.6119C56.9081 47.7206 57.1939 47.7742 57.5127 47.7742C57.812 47.7742 58.0933 47.7236 58.3567 47.6223C58.62 47.521 58.843 47.3989 59.0211 47.2559V45.9647H57.4289V45.4479H59.5882V47.5032C59.3443 47.7147 59.0435 47.9008 58.6874 48.0557Z" fill="#666666"/>
<path d="M60.874 48.1987V42.8072H61.4487V48.1987H60.874Z" fill="#666666"/>
<path d="M66.4206 47.0579C66.3189 47.3021 66.1782 47.5151 65.9986 47.6968C65.8191 47.8785 65.6051 48.023 65.3567 48.1287C65.1068 48.2344 64.8389 48.2881 64.5501 48.2881C64.2613 48.2881 63.9949 48.2344 63.751 48.1287C63.5071 48.023 63.2946 47.88 63.1165 47.6998C62.9369 47.5196 62.7978 47.3096 62.6975 47.0683C62.5972 46.827 62.5479 46.5708 62.5479 46.2998C62.5479 46.0287 62.5972 45.771 62.6975 45.5283C62.7978 45.284 62.9369 45.071 63.1165 44.8893C63.2961 44.7076 63.5086 44.5632 63.7555 44.4574C64.0024 44.3517 64.2717 44.2981 64.5665 44.2981C64.8554 44.2981 65.1232 44.3517 65.3701 44.4574C65.617 44.5632 65.8295 44.7062 66.0091 44.8864C66.1887 45.0666 66.3279 45.2766 66.4281 45.5179C66.5284 45.7591 66.5778 46.0153 66.5778 46.2864C66.5748 46.5559 66.5224 46.8136 66.4206 47.0579ZM65.8759 45.7144C65.8041 45.5327 65.7023 45.3749 65.5736 45.2393C65.4435 45.1038 65.2923 44.9981 65.1172 44.9191C64.9421 44.8402 64.7536 44.8015 64.5501 44.8015C64.3406 44.8015 64.149 44.8402 63.9754 44.9161C63.8004 44.9921 63.6522 45.0979 63.531 45.2334C63.4083 45.3689 63.3125 45.5253 63.2437 45.7055C63.1734 45.8842 63.1389 46.0779 63.1389 46.2834C63.1389 46.4904 63.1749 46.684 63.2467 46.8657C63.3185 47.0474 63.4188 47.2053 63.546 47.3379C63.6732 47.4704 63.8243 47.5762 63.9979 47.6551C64.1715 47.734 64.3615 47.7727 64.565 47.7727C64.7745 47.7727 64.9661 47.7355 65.1397 47.6581C65.3148 47.5821 65.4629 47.4779 65.5886 47.3453C65.7128 47.2127 65.8101 47.0564 65.8804 46.8776C65.9507 46.6989 65.9852 46.5053 65.9852 46.2998C65.9837 46.0898 65.9478 45.8962 65.8759 45.7144Z" fill="#666666"/>
<path d="M71.3559 47.1279C71.2511 47.3736 71.1135 47.5821 70.9414 47.7519C70.7693 47.9217 70.5732 48.0528 70.3518 48.1436C70.1303 48.2345 69.9028 48.2806 69.6679 48.2806C69.4883 48.2806 69.3237 48.2583 69.1741 48.2136C69.0244 48.1689 68.8897 48.1108 68.77 48.0364C68.6503 47.9619 68.5426 47.877 68.4453 47.7772C68.348 47.6789 68.2627 47.5762 68.1879 47.4674V48.1987H67.6133V42.8072H68.1879V45.1485C68.2672 45.0353 68.3555 44.9266 68.4528 44.8238C68.5501 44.721 68.6578 44.6302 68.7775 44.5542C68.8972 44.4783 69.0304 44.4157 69.1771 44.3696C69.3237 44.3234 69.4868 44.2996 69.6664 44.2996C69.8953 44.2996 70.1213 44.3442 70.3428 44.4321C70.5643 44.52 70.7618 44.6496 70.9369 44.8193C71.1105 44.9891 71.2511 45.1976 71.3559 45.4434C71.4606 45.6891 71.513 45.9706 71.513 46.2849C71.513 46.6006 71.4606 46.8821 71.3559 47.1279ZM70.8142 45.6832C70.7423 45.5015 70.6436 45.3466 70.5194 45.217C70.3952 45.0874 70.25 44.9876 70.0854 44.9191C69.9208 44.8506 69.7472 44.8164 69.5616 44.8164C69.3821 44.8164 69.21 44.8521 69.0424 44.9236C68.8748 44.9951 68.7266 45.0934 68.5935 45.2215C68.4618 45.3496 68.357 45.503 68.2792 45.6847C68.2014 45.8664 68.164 46.0674 68.164 46.2864C68.164 46.5068 68.2029 46.7093 68.2792 46.8925C68.357 47.0757 68.4603 47.2321 68.5935 47.3587C68.7251 47.4868 68.8748 47.5851 69.0424 47.6566C69.2085 47.7281 69.3821 47.7638 69.5616 47.7638C69.7457 47.7638 69.9208 47.731 70.0884 47.664C70.2545 47.5985 70.3996 47.5032 70.5224 47.3781C70.6436 47.253 70.7408 47.0981 70.8142 46.9149C70.886 46.7317 70.9219 46.5247 70.9219 46.2938C70.9219 46.0674 70.886 45.8649 70.8142 45.6832Z" fill="#666666"/>
<path d="M73.3482 44.9087C73.1612 44.9608 72.9786 45.0279 72.799 45.1113L72.6269 44.6466C72.8409 44.5483 73.0579 44.4708 73.2764 44.4142C73.4949 44.3576 73.7478 44.3293 74.0306 44.3293C74.5588 44.3293 74.9644 44.4589 75.2487 44.7166C75.533 44.9757 75.6752 45.3585 75.6752 45.8649V48.1987H75.1215V47.6223C74.9868 47.7951 74.8057 47.947 74.5798 48.0796C74.3523 48.2121 74.068 48.2791 73.7238 48.2791C73.5442 48.2791 73.3692 48.2538 73.1971 48.2047C73.025 48.1555 72.8708 48.081 72.7332 47.9798C72.5955 47.8785 72.4863 47.7549 72.404 47.6074C72.3217 47.46 72.2812 47.2842 72.2812 47.0832C72.2812 46.8821 72.3217 46.7034 72.401 46.547C72.4803 46.3921 72.594 46.2625 72.7407 46.1598C72.8873 46.057 73.0624 45.9781 73.2644 45.923C73.4664 45.8693 73.6894 45.841 73.9333 45.841C74.1817 45.841 74.3987 45.8559 74.5828 45.8857C74.7668 45.9155 74.9464 45.9542 75.12 46.0034V45.8723C75.12 45.5283 75.0197 45.2676 74.8177 45.0934C74.6157 44.9191 74.3329 44.8313 73.9692 44.8313C73.7418 44.8298 73.5338 44.8566 73.3482 44.9087ZM73.1642 46.477C72.9711 46.62 72.8738 46.8136 72.8738 47.0608C72.8738 47.1845 72.8993 47.2917 72.9517 47.3855C73.004 47.4793 73.0744 47.5598 73.1642 47.6253C73.2539 47.6923 73.3557 47.743 73.4724 47.7772C73.5891 47.8115 73.7118 47.8293 73.8405 47.8293C74.0186 47.8293 74.1862 47.804 74.3433 47.7519C74.5005 47.6998 74.6366 47.6283 74.7534 47.5374C74.8701 47.4466 74.9614 47.3379 75.0287 47.2127C75.0961 47.0876 75.129 46.9476 75.129 46.7957V46.4264C74.9853 46.3876 74.8192 46.3504 74.6336 46.3162C74.4481 46.2819 74.2356 46.264 73.9962 46.264C73.6355 46.264 73.3572 46.3355 73.1642 46.477Z" fill="#666666"/>
<path d="M76.9531 48.1987V42.8072H77.5278V48.1987H76.9531Z" fill="#666666"/>
<path d="M83.177 48.1987H82.5874V43.5683H80.832V43.0291H84.9338V43.5683H83.1785V48.1987H83.177Z" fill="#666666"/>
<path d="M86.4115 48.1987H85.8369V42.8072H86.4115V45.0457C86.5417 44.8387 86.7108 44.663 86.9203 44.517C87.1298 44.3725 87.4007 44.2996 87.7344 44.2996C87.9678 44.2996 88.1759 44.3368 88.3584 44.4098C88.5395 44.4842 88.6951 44.5885 88.8223 44.724C88.9495 44.8596 89.0468 45.0204 89.1141 45.2081C89.1815 45.3957 89.2144 45.6027 89.2144 45.8291V48.2002H88.6397V45.9691C88.6397 45.6147 88.547 45.3332 88.3629 45.1276C88.1788 44.9206 87.914 44.8179 87.5713 44.8179C87.4067 44.8179 87.254 44.8462 87.1119 44.9027C86.9697 44.9593 86.847 45.0413 86.7423 45.147C86.6375 45.2528 86.5567 45.3793 86.4998 45.5268C86.443 45.6742 86.4145 45.8366 86.4145 46.0138V48.1987H86.4115Z" fill="#666666"/>
<path d="M90.4541 43.546V42.9174H91.111V43.546H90.4541ZM90.4915 48.1987V44.38H91.0661V48.1987H90.4915Z" fill="#666666"/>
<path d="M92.9799 48.1987H92.4053V44.38H92.9799V45.0442C93.1101 44.8372 93.2792 44.6615 93.4887 44.5155C93.6982 44.371 93.969 44.2981 94.3028 44.2981C94.5362 44.2981 94.7442 44.3353 94.9268 44.4083C95.1078 44.4827 95.2635 44.587 95.3907 44.7225C95.5179 44.8581 95.6151 45.0189 95.6825 45.2066C95.7498 45.3942 95.7827 45.6013 95.7827 45.8276V48.1987H95.2081V45.9676C95.2081 45.6132 95.1153 45.3317 94.9313 45.1261C94.7472 44.9191 94.4823 44.8164 94.1396 44.8164C93.975 44.8164 93.8224 44.8447 93.6802 44.9013C93.5381 44.9579 93.4154 45.0398 93.3106 45.1455C93.2059 45.2513 93.1251 45.3779 93.0682 45.5253C93.0113 45.6727 92.9829 45.8351 92.9829 46.0123V48.1987H92.9799Z" fill="#666666"/>
<path d="M100.436 48.1987H99.7493L98.3666 46.4189L97.5824 47.2023V48.2002H97.0078V42.8087H97.5824V46.5306L99.667 44.3815H100.384L98.7631 46.0213L100.436 48.1987Z" fill="#666666"/>
<path d="M101.573 47.0504C101.652 47.2113 101.754 47.3453 101.879 47.457C102.004 47.5672 102.143 47.6521 102.298 47.7087C102.453 47.7653 102.614 47.7936 102.785 47.7936C103.054 47.7936 103.285 47.7445 103.476 47.6462C103.668 47.5479 103.843 47.4168 104.003 47.2544L104.362 47.5717C104.168 47.7891 103.946 47.9619 103.698 48.093C103.448 48.224 103.139 48.2881 102.771 48.2881C102.508 48.2881 102.258 48.2404 102.025 48.1436C101.791 48.0468 101.586 47.9127 101.41 47.737C101.235 47.5627 101.094 47.3513 100.991 47.1055C100.887 46.8598 100.835 46.5887 100.835 46.2923C100.835 46.0168 100.881 45.7562 100.973 45.5134C101.065 45.2691 101.193 45.0576 101.357 44.8774C101.522 44.6972 101.716 44.5557 101.944 44.453C102.17 44.3502 102.418 44.2981 102.688 44.2981C102.972 44.2981 103.225 44.3517 103.449 44.4574C103.674 44.5632 103.862 44.7076 104.016 44.8893C104.171 45.071 104.287 45.2855 104.368 45.5327C104.447 45.7785 104.488 46.0421 104.488 46.3236C104.488 46.3489 104.488 46.3757 104.488 46.4055C104.488 46.4353 104.485 46.4666 104.48 46.5008H101.425C101.443 46.7064 101.492 46.8896 101.573 47.0504ZM103.895 46.0793C103.88 45.9066 103.844 45.7427 103.787 45.5849C103.731 45.427 103.651 45.29 103.549 45.1708C103.448 45.0532 103.324 44.9579 103.178 44.8864C103.032 44.8149 102.863 44.7791 102.67 44.7791C102.502 44.7791 102.345 44.8119 102.201 44.8789C102.058 44.9459 101.932 45.0368 101.823 45.1515C101.713 45.2676 101.625 45.4047 101.555 45.561C101.486 45.7189 101.441 45.8902 101.422 46.0779H103.895V46.0793Z" fill="#666666"/>
<path d="M106.069 48.1987H105.494V44.38H106.069V45.3779C106.139 45.22 106.226 45.0755 106.331 44.9415C106.435 44.8089 106.555 44.6942 106.69 44.5974C106.824 44.5006 106.971 44.4291 107.131 44.38C107.291 44.3308 107.462 44.3085 107.648 44.313V44.9266H107.603C107.393 44.9266 107.196 44.9638 107.009 45.0368C106.821 45.1113 106.658 45.2215 106.519 45.3689C106.38 45.5164 106.269 45.6996 106.19 45.92C106.111 46.1389 106.07 46.3921 106.07 46.6766V48.1987H106.069Z" fill="#666666"/>
<path d="M111.064 47.6119C110.992 47.7519 110.895 47.871 110.772 47.9708C110.649 48.0706 110.506 48.1451 110.338 48.1957C110.171 48.2479 109.991 48.2732 109.796 48.2732C109.518 48.2732 109.235 48.2225 108.952 48.1213C108.668 48.02 108.417 47.8844 108.198 47.7117L108.49 47.3051C108.7 47.463 108.917 47.5836 109.144 47.667C109.371 47.7504 109.599 47.7921 109.828 47.7921C110.061 47.7921 110.254 47.7385 110.403 47.6298C110.552 47.521 110.627 47.3736 110.627 47.1859V47.171C110.627 47.0772 110.602 46.9968 110.549 46.9268C110.497 46.8583 110.426 46.7972 110.337 46.7466C110.247 46.6944 110.144 46.6498 110.027 46.6096C109.91 46.5708 109.789 46.5336 109.665 46.4993C109.515 46.4547 109.364 46.407 109.213 46.3549C109.06 46.3027 108.924 46.2372 108.801 46.1598C108.679 46.0808 108.58 45.9825 108.502 45.8649C108.424 45.7472 108.387 45.5983 108.387 45.421V45.4061C108.387 45.2438 108.42 45.0949 108.484 44.9593C108.548 44.8238 108.64 44.7076 108.756 44.6123C108.873 44.517 109.012 44.4425 109.175 44.3904C109.337 44.3383 109.512 44.313 109.702 44.313C109.942 44.313 110.183 44.3517 110.426 44.4276C110.67 44.5036 110.892 44.6064 111.091 44.7344L110.829 45.1634C110.649 45.0502 110.461 44.9608 110.265 44.8938C110.067 44.8268 109.874 44.794 109.686 44.794C109.457 44.794 109.274 44.8476 109.141 44.9534C109.006 45.0591 108.939 45.1917 108.939 45.3481V45.363C108.939 45.4508 108.966 45.5298 109.021 45.5953C109.077 45.6623 109.15 45.7204 109.241 45.7696C109.334 45.8187 109.439 45.8634 109.559 45.9021C109.678 45.9408 109.802 45.981 109.933 46.0198C110.082 46.0644 110.23 46.1136 110.377 46.1672C110.524 46.2208 110.657 46.2908 110.777 46.3742C110.896 46.4576 110.992 46.5589 111.064 46.6766C111.136 46.7942 111.172 46.9402 111.172 47.113V47.1279C111.173 47.3096 111.136 47.4704 111.064 47.6119Z" fill="#666666"/>
<path d="M112.175 48.1987V47.4228H112.862V48.1987H112.175Z" fill="#666666"/>
<path d="M120.191 43.5608H117.001V45.3257H119.854V45.8574H117.001V47.667H120.229V48.1987H116.411V43.0276H120.191V43.5608Z" fill="#666666"/>
<path d="M121.894 48.1987H121.319V44.38H121.894V45.0442C122.024 44.8372 122.193 44.6615 122.403 44.5155C122.612 44.371 122.883 44.2981 123.217 44.2981C123.45 44.2981 123.658 44.3353 123.841 44.4083C124.022 44.4827 124.178 44.587 124.305 44.7225C124.432 44.8581 124.529 45.0189 124.597 45.2066C124.664 45.3942 124.697 45.6013 124.697 45.8276V48.1987H124.122V45.9676C124.122 45.6132 124.029 45.3317 123.845 45.1261C123.661 44.9191 123.396 44.8164 123.054 44.8164C122.889 44.8164 122.736 44.8447 122.594 44.9013C122.452 44.9579 122.329 45.0398 122.225 45.1455C122.12 45.2513 122.039 45.3779 121.982 45.5253C121.925 45.6727 121.897 45.8351 121.897 46.0123V48.1987H121.894Z" fill="#666666"/>
<path d="M129.46 48.3462C129.367 48.577 129.235 48.7706 129.063 48.9255C128.891 49.0804 128.685 49.1981 128.444 49.277C128.201 49.356 127.932 49.3947 127.633 49.3947C127.308 49.3947 127 49.35 126.706 49.2621C126.413 49.1728 126.136 49.0402 125.877 48.863L126.139 48.4192C126.364 48.577 126.597 48.6977 126.841 48.7811C127.085 48.8645 127.347 48.9062 127.625 48.9062C128.053 48.9062 128.394 48.7915 128.649 48.5621C128.903 48.3328 129.03 47.9947 129.03 47.5464V47.0951C128.861 47.317 128.655 47.5062 128.411 47.664C128.167 47.8219 127.868 47.9009 127.514 47.9009C127.279 47.9009 127.055 47.8606 126.838 47.7787C126.621 47.6968 126.428 47.5792 126.259 47.4243C126.09 47.2694 125.954 47.0802 125.852 46.8598C125.75 46.6379 125.699 46.3877 125.699 46.1062C125.699 45.8262 125.75 45.573 125.852 45.3496C125.954 45.1262 126.09 44.9355 126.259 44.7806C126.428 44.6257 126.623 44.5066 126.841 44.4217C127.059 44.3383 127.284 44.2966 127.513 44.2966C127.692 44.2966 127.857 44.3174 128.01 44.3592C128.161 44.4009 128.299 44.456 128.421 44.526C128.544 44.5945 128.655 44.6764 128.753 44.7702C128.854 44.864 128.942 44.9623 129.023 45.0651V44.3785H129.597V47.533C129.597 47.8443 129.551 48.1153 129.46 48.3462ZM128.926 45.5655C128.846 45.4062 128.74 45.2692 128.608 45.156C128.477 45.0428 128.325 44.9549 128.156 44.8938C127.987 44.8328 127.811 44.8015 127.625 44.8015C127.44 44.8015 127.267 44.8313 127.106 44.8894C126.944 44.9489 126.802 45.0353 126.679 45.1485C126.557 45.2617 126.461 45.3987 126.392 45.5581C126.322 45.7189 126.287 45.8962 126.287 46.0943C126.287 46.2923 126.323 46.4696 126.395 46.6304C126.467 46.7898 126.564 46.9283 126.687 47.0445C126.81 47.1606 126.95 47.2485 127.113 47.3111C127.275 47.3721 127.446 47.4034 127.625 47.4034C127.809 47.4034 127.986 47.3721 128.156 47.3111C128.325 47.25 128.477 47.1621 128.608 47.0489C128.74 46.9357 128.846 46.7987 128.926 46.6394C129.005 46.48 129.045 46.3013 129.045 46.1047C129.045 45.9081 129.005 45.7249 128.926 45.5655Z" fill="#666666"/>
<path d="M131.657 44.9087C131.47 44.9608 131.287 45.0279 131.108 45.1113L130.936 44.6466C131.15 44.5483 131.366 44.4708 131.585 44.4142C131.803 44.3576 132.056 44.3293 132.339 44.3293C132.867 44.3293 133.273 44.4589 133.557 44.7166C133.842 44.9742 133.984 45.3585 133.984 45.8649V48.1987H133.43V47.6223C133.295 47.7951 133.114 47.947 132.888 48.0796C132.662 48.2121 132.377 48.2791 132.032 48.2791C131.853 48.2791 131.678 48.2538 131.506 48.2047C131.334 48.1555 131.179 48.081 131.042 47.9798C130.904 47.8785 130.795 47.7549 130.713 47.6074C130.63 47.46 130.59 47.2842 130.59 47.0832C130.59 46.8821 130.63 46.7034 130.71 46.547C130.789 46.3921 130.903 46.2625 131.049 46.1598C131.196 46.057 131.371 45.9781 131.573 45.923C131.775 45.8693 131.998 45.841 132.242 45.841C132.49 45.841 132.707 45.8559 132.891 45.8857C133.075 45.9155 133.255 45.9542 133.429 46.0034V45.8723C133.429 45.5283 133.328 45.2676 133.126 45.0934C132.924 44.9191 132.641 44.8313 132.278 44.8313C132.05 44.8298 131.842 44.8566 131.657 44.9087ZM131.473 46.477C131.28 46.62 131.182 46.8136 131.182 47.0608C131.182 47.1845 131.208 47.2917 131.26 47.3855C131.313 47.4793 131.383 47.5598 131.473 47.6253C131.563 47.6923 131.666 47.743 131.783 47.7772C131.899 47.8115 132.022 47.8293 132.151 47.8293C132.329 47.8293 132.496 47.804 132.653 47.7519C132.809 47.6998 132.947 47.6283 133.063 47.5374C133.18 47.4466 133.271 47.3379 133.339 47.2127C133.406 47.0876 133.439 46.9476 133.439 46.7957V46.4264C133.295 46.3876 133.129 46.3504 132.944 46.3162C132.758 46.2819 132.546 46.264 132.308 46.264C131.944 46.264 131.666 46.3355 131.473 46.477Z" fill="#666666"/>
<path d="M138.747 48.3462C138.654 48.577 138.522 48.7706 138.35 48.9255C138.178 49.0804 137.972 49.1981 137.731 49.277C137.488 49.356 137.219 49.3947 136.92 49.3947C136.595 49.3947 136.287 49.35 135.993 49.2621C135.7 49.1728 135.423 49.0402 135.164 48.863L135.426 48.4192C135.651 48.577 135.884 48.6977 136.128 48.7811C136.372 48.8645 136.634 48.9062 136.912 48.9062C137.34 48.9062 137.681 48.7915 137.936 48.5621C138.19 48.3328 138.317 47.9947 138.317 47.5464V47.0951C138.148 47.317 137.942 47.5062 137.698 47.664C137.454 47.8219 137.155 47.9009 136.802 47.9009C136.567 47.9009 136.342 47.8606 136.125 47.7787C135.908 47.6968 135.715 47.5792 135.546 47.4243C135.377 47.2694 135.241 47.0802 135.139 46.8598C135.037 46.6379 134.986 46.3877 134.986 46.1062C134.986 45.8262 135.037 45.573 135.139 45.3496C135.241 45.1262 135.377 44.9355 135.546 44.7806C135.715 44.6257 135.91 44.5066 136.128 44.4217C136.347 44.3383 136.571 44.2966 136.8 44.2966C136.98 44.2966 137.144 44.3174 137.297 44.3592C137.448 44.4009 137.586 44.456 137.708 44.526C137.831 44.5945 137.942 44.6764 138.041 44.7702C138.141 44.864 138.229 44.9623 138.31 45.0651V44.3785H138.885V47.533C138.885 47.8443 138.84 48.1153 138.747 48.3462ZM138.213 45.5655C138.133 45.4062 138.027 45.2692 137.895 45.156C137.764 45.0428 137.613 44.9549 137.443 44.8938C137.274 44.8328 137.098 44.8015 136.912 44.8015C136.727 44.8015 136.555 44.8313 136.393 44.8894C136.231 44.9489 136.089 45.0353 135.966 45.1485C135.844 45.2617 135.748 45.3987 135.679 45.5581C135.609 45.7189 135.574 45.8962 135.574 46.0943C135.574 46.2923 135.61 46.4696 135.682 46.6304C135.754 46.7898 135.851 46.9283 135.974 47.0445C136.097 47.1606 136.237 47.2485 136.4 47.3111C136.562 47.3721 136.733 47.4034 136.912 47.4034C137.096 47.4034 137.273 47.3721 137.443 47.3111C137.613 47.25 137.764 47.1621 137.895 47.0489C138.027 46.9357 138.133 46.7987 138.213 46.6394C138.292 46.48 138.332 46.3013 138.332 46.1047C138.332 45.9081 138.292 45.7249 138.213 45.5655Z" fill="#666666"/>
<path d="M140.671 47.0504C140.751 47.2113 140.852 47.3453 140.978 47.457C141.102 47.5672 141.241 47.6521 141.397 47.7087C141.551 47.7653 141.713 47.7936 141.883 47.7936C142.153 47.7936 142.383 47.7445 142.575 47.6462C142.766 47.5479 142.941 47.4168 143.102 47.2544L143.461 47.5717C143.266 47.7891 143.045 47.9619 142.796 48.093C142.546 48.224 142.238 48.2881 141.87 48.2881C141.607 48.2881 141.357 48.2404 141.123 48.1436C140.89 48.0468 140.685 47.9127 140.508 47.737C140.333 47.5627 140.192 47.3513 140.089 47.1055C139.986 46.8598 139.934 46.5887 139.934 46.2923C139.934 46.0168 139.98 45.7562 140.071 45.5134C140.164 45.2691 140.291 45.0576 140.456 44.8774C140.62 44.6972 140.815 44.5557 141.042 44.453C141.268 44.3502 141.517 44.2981 141.786 44.2981C142.071 44.2981 142.323 44.3517 142.548 44.4574C142.772 44.5632 142.961 44.7076 143.115 44.8893C143.269 45.071 143.386 45.2855 143.467 45.5327C143.546 45.7785 143.586 46.0421 143.586 46.3236C143.586 46.3489 143.586 46.3757 143.586 46.4055C143.586 46.4353 143.583 46.4666 143.579 46.5008H140.523C140.541 46.7064 140.591 46.8896 140.671 47.0504ZM142.995 46.0793C142.98 45.9066 142.944 45.7427 142.888 45.5849C142.831 45.427 142.751 45.29 142.65 45.1708C142.548 45.0532 142.424 44.9579 142.279 44.8864C142.132 44.8149 141.963 44.7791 141.77 44.7791C141.602 44.7791 141.445 44.8119 141.301 44.8789C141.158 44.9459 141.032 45.0368 140.923 45.1515C140.813 45.2676 140.725 45.4047 140.655 45.561C140.586 45.7189 140.541 45.8902 140.522 46.0779H142.995V46.0793Z" fill="#666666"/>
<path d="M147.694 48.1987V47.4302C147.614 47.5434 147.526 47.6521 147.429 47.7549C147.332 47.8577 147.224 47.95 147.104 48.0274C146.984 48.1064 146.851 48.1674 146.705 48.2121C146.558 48.2568 146.395 48.2791 146.215 48.2791C145.98 48.2791 145.754 48.2345 145.536 48.1466C145.317 48.0572 145.12 47.9291 144.946 47.7594C144.773 47.5896 144.632 47.3811 144.527 47.1353C144.422 46.8896 144.37 46.6081 144.37 46.2938C144.37 45.9781 144.422 45.6981 144.527 45.4523C144.632 45.2066 144.771 44.9981 144.946 44.8283C145.121 44.6585 145.317 44.5274 145.536 44.4366C145.754 44.3457 145.982 44.2996 146.215 44.2996C146.395 44.2996 146.559 44.3219 146.709 44.3666C146.859 44.4113 146.993 44.4694 147.113 44.5438C147.233 44.6183 147.341 44.7032 147.438 44.803C147.535 44.9013 147.62 45.0055 147.695 45.1128V42.8087H148.27V48.2002H147.694V48.1987ZM147.601 45.6832C147.523 45.5015 147.42 45.3481 147.287 45.22C147.153 45.0919 147.005 44.9936 146.838 44.9221C146.67 44.8506 146.498 44.8149 146.318 44.8149C146.128 44.8149 145.952 44.8477 145.789 44.9147C145.626 44.9817 145.48 45.077 145.359 45.2006C145.237 45.3257 145.139 45.4806 145.067 45.6638C144.996 45.847 144.96 46.054 144.96 46.2849C144.96 46.5098 144.996 46.7138 145.067 46.8955C145.139 47.0772 145.238 47.2321 145.362 47.3617C145.486 47.4913 145.632 47.5911 145.796 47.6596C145.961 47.7281 146.134 47.7623 146.32 47.7623C146.5 47.7623 146.672 47.7266 146.839 47.6551C147.007 47.5836 147.155 47.4853 147.288 47.3572C147.421 47.2291 147.525 47.0742 147.602 46.8911C147.68 46.7079 147.718 46.5053 147.718 46.2849C147.716 46.0645 147.677 45.8649 147.601 45.6832Z" fill="#666666"/>
<path d="M151.893 43.0276H152.483V47.6596H155.426V48.1987H151.892V43.0276H151.893Z" fill="#666666"/>
<path d="M156.846 47.0504C156.925 47.2113 157.027 47.3453 157.153 47.457C157.277 47.5672 157.416 47.6521 157.572 47.7087C157.726 47.7653 157.888 47.7936 158.058 47.7936C158.328 47.7936 158.558 47.7445 158.75 47.6462C158.941 47.5479 159.116 47.4168 159.276 47.2544L159.636 47.5717C159.441 47.7891 159.219 47.9619 158.971 48.093C158.721 48.224 158.413 48.2881 158.045 48.2881C157.781 48.2881 157.532 48.2404 157.298 48.1436C157.065 48.0468 156.86 47.9127 156.683 47.737C156.508 47.5627 156.367 47.3513 156.264 47.1055C156.161 46.8598 156.108 46.5887 156.108 46.2923C156.108 46.0168 156.155 45.7562 156.246 45.5134C156.339 45.2691 156.466 45.0576 156.631 44.8774C156.795 44.6972 156.99 44.5557 157.217 44.453C157.443 44.3502 157.692 44.2981 157.961 44.2981C158.245 44.2981 158.498 44.3517 158.723 44.4574C158.947 44.5632 159.136 44.7076 159.29 44.8893C159.444 45.071 159.561 45.2855 159.642 45.5327C159.721 45.7785 159.761 46.0421 159.761 46.3236C159.761 46.3489 159.761 46.3757 159.761 46.4055C159.761 46.4353 159.758 46.4666 159.754 46.5008H156.698C156.717 46.7064 156.767 46.8896 156.846 47.0504ZM159.17 46.0793C159.155 45.9066 159.119 45.7427 159.062 45.5849C159.005 45.427 158.926 45.29 158.824 45.1708C158.723 45.0532 158.598 44.9579 158.453 44.8864C158.307 44.8149 158.138 44.7791 157.945 44.7791C157.777 44.7791 157.62 44.8119 157.476 44.8789C157.332 44.9459 157.207 45.0368 157.098 45.1515C156.988 45.2676 156.9 45.4047 156.83 45.561C156.761 45.7189 156.716 45.8902 156.697 46.0779H159.17V46.0793Z" fill="#666666"/>
<path d="M161.544 44.9087C161.356 44.9608 161.174 45.0279 160.994 45.1113L160.822 44.6466C161.036 44.5483 161.253 44.4708 161.472 44.4142C161.69 44.3576 161.943 44.3293 162.226 44.3293C162.754 44.3293 163.16 44.4589 163.444 44.7166C163.728 44.9742 163.87 45.3585 163.87 45.8649V48.1987H163.317V47.6223C163.182 47.7951 163.001 47.947 162.775 48.0796C162.549 48.2121 162.263 48.2791 161.919 48.2791C161.74 48.2791 161.564 48.2538 161.392 48.2047C161.22 48.1555 161.066 48.081 160.928 47.9798C160.791 47.8785 160.682 47.7549 160.599 47.6074C160.517 47.46 160.477 47.2842 160.477 47.0832C160.477 46.8821 160.517 46.7034 160.596 46.547C160.676 46.3921 160.789 46.2625 160.936 46.1598C161.083 46.057 161.258 45.9781 161.46 45.923C161.662 45.8693 161.885 45.841 162.129 45.841C162.377 45.841 162.594 45.8559 162.778 45.8857C162.962 45.9155 163.142 45.9542 163.315 46.0034V45.8723C163.315 45.5283 163.215 45.2676 163.013 45.0934C162.811 44.9191 162.528 44.8313 162.165 44.8313C161.937 44.8298 161.729 44.8566 161.544 44.9087ZM161.359 46.477C161.166 46.62 161.069 46.8136 161.069 47.0608C161.069 47.1845 161.095 47.2917 161.147 47.3855C161.199 47.4793 161.27 47.5598 161.359 47.6253C161.449 47.6923 161.552 47.743 161.669 47.7772C161.786 47.8115 161.909 47.8293 162.037 47.8293C162.215 47.8293 162.383 47.804 162.54 47.7519C162.696 47.6998 162.833 47.6283 162.95 47.5374C163.067 47.4466 163.158 47.3379 163.226 47.2127C163.293 47.0876 163.326 46.9476 163.326 46.7957V46.4264C163.182 46.3876 163.016 46.3504 162.83 46.3162C162.645 46.2819 162.432 46.264 162.194 46.264C161.831 46.264 161.553 46.3355 161.359 46.477Z" fill="#666666"/>
<path d="M168.197 48.1987V47.4302C168.117 47.5434 168.029 47.6521 167.932 47.7549C167.834 47.8577 167.727 47.95 167.607 48.0274C167.487 48.1064 167.354 48.1674 167.207 48.2121C167.061 48.2568 166.898 48.2791 166.718 48.2791C166.483 48.2791 166.257 48.2345 166.039 48.1466C165.82 48.0572 165.623 47.9291 165.449 47.7594C165.276 47.5896 165.135 47.3811 165.03 47.1353C164.925 46.8896 164.873 46.6081 164.873 46.2938C164.873 45.9781 164.925 45.6981 165.03 45.4523C165.135 45.2066 165.274 44.9981 165.449 44.8283C165.624 44.6585 165.82 44.5274 166.039 44.4366C166.257 44.3457 166.485 44.2996 166.718 44.2996C166.898 44.2996 167.062 44.3219 167.212 44.3666C167.362 44.4113 167.496 44.4694 167.616 44.5438C167.736 44.6183 167.843 44.7032 167.941 44.803C168.038 44.9013 168.123 45.0055 168.198 45.1128V42.8087H168.773V48.2002H168.197V48.1987ZM168.102 45.6832C168.025 45.5015 167.921 45.3481 167.788 45.22C167.655 45.0919 167.507 44.9936 167.339 44.9221C167.172 44.8506 166.999 44.8149 166.82 44.8149C166.63 44.8149 166.453 44.8477 166.29 44.9147C166.127 44.9817 165.982 45.077 165.861 45.2006C165.738 45.3257 165.641 45.4806 165.569 45.6638C165.497 45.847 165.461 46.054 165.461 46.2849C165.461 46.5098 165.497 46.7138 165.569 46.8955C165.641 47.0772 165.739 47.2321 165.864 47.3617C165.988 47.4913 166.133 47.5911 166.298 47.6596C166.462 47.7281 166.636 47.7623 166.821 47.7623C167.001 47.7623 167.173 47.7266 167.341 47.6551C167.508 47.5836 167.656 47.4853 167.79 47.3572C167.923 47.2291 168.026 47.0742 168.104 46.8911C168.182 46.7079 168.219 46.5053 168.219 46.2849C168.219 46.0645 168.18 45.8649 168.102 45.6832Z" fill="#666666"/>
<path d="M170.558 47.0504C170.637 47.2113 170.739 47.3453 170.865 47.457C170.989 47.5672 171.128 47.6521 171.284 47.7087C171.438 47.7653 171.6 47.7936 171.77 47.7936C172.04 47.7936 172.27 47.7445 172.462 47.6462C172.653 47.5479 172.828 47.4168 172.988 47.2544L173.347 47.5717C173.153 47.7891 172.931 47.9619 172.683 48.093C172.433 48.224 172.125 48.2881 171.757 48.2881C171.493 48.2881 171.243 48.2404 171.01 48.1436C170.777 48.0468 170.572 47.9127 170.395 47.737C170.22 47.5627 170.079 47.3513 169.976 47.1055C169.873 46.8598 169.82 46.5887 169.82 46.2923C169.82 46.0168 169.867 45.7562 169.958 45.5134C170.051 45.2691 170.178 45.0576 170.343 44.8774C170.507 44.6972 170.702 44.5557 170.929 44.453C171.155 44.3502 171.404 44.2981 171.673 44.2981C171.957 44.2981 172.21 44.3517 172.435 44.4574C172.659 44.5632 172.848 44.7076 173.002 44.8893C173.156 45.071 173.273 45.2855 173.353 45.5327C173.433 45.7785 173.473 46.0421 173.473 46.3236C173.473 46.3489 173.473 46.3757 173.473 46.4055C173.473 46.4353 173.47 46.4666 173.466 46.5008H170.41C170.428 46.7064 170.477 46.8896 170.558 47.0504ZM172.881 46.0793C172.866 45.9066 172.83 45.7427 172.773 45.5849C172.716 45.427 172.637 45.29 172.535 45.1708C172.433 45.0532 172.309 44.9579 172.164 44.8864C172.017 44.8149 171.848 44.7791 171.655 44.7791C171.487 44.7791 171.33 44.8119 171.187 44.8789C171.043 44.9459 170.917 45.0368 170.808 45.1515C170.699 45.2676 170.61 45.4047 170.54 45.561C170.471 45.7189 170.426 45.8902 170.407 46.0779H172.881V46.0793Z" fill="#666666"/>
<path d="M175.055 48.1987H174.48V44.38H175.055V45.3779C175.125 45.22 175.212 45.0755 175.317 44.9415C175.422 44.8089 175.541 44.6942 175.676 44.5974C175.811 44.5006 175.957 44.4291 176.118 44.38C176.278 44.3308 176.448 44.3085 176.634 44.313V44.9266H176.589C176.379 44.9266 176.182 44.9638 175.995 45.0368C175.808 45.1113 175.645 45.2215 175.506 45.3689C175.366 45.5164 175.256 45.6996 175.176 45.92C175.097 46.1389 175.057 46.3921 175.057 46.6766V48.1987H175.055Z" fill="#666666"/>
<path d="M180.05 47.6119C179.978 47.7519 179.881 47.871 179.758 47.9708C179.636 48.0706 179.492 48.1451 179.324 48.1957C179.157 48.2479 178.977 48.2732 178.783 48.2732C178.504 48.2732 178.222 48.2225 177.939 48.1213C177.654 48.02 177.403 47.8844 177.185 47.7117L177.476 47.3051C177.686 47.463 177.903 47.5836 178.13 47.667C178.358 47.7504 178.585 47.7921 178.814 47.7921C179.048 47.7921 179.241 47.7385 179.389 47.6298C179.538 47.521 179.613 47.3736 179.613 47.1859V47.171C179.613 47.0772 179.588 46.9968 179.535 46.9268C179.483 46.8583 179.413 46.7972 179.323 46.7466C179.233 46.6944 179.13 46.6498 179.013 46.6096C178.896 46.5708 178.775 46.5336 178.651 46.4993C178.501 46.4547 178.35 46.407 178.199 46.3549C178.047 46.3027 177.91 46.2372 177.788 46.1598C177.665 46.0808 177.566 45.9825 177.488 45.8649C177.411 45.7472 177.373 45.5983 177.373 45.421V45.4061C177.373 45.2438 177.406 45.0949 177.47 44.9593C177.535 44.8238 177.626 44.7076 177.743 44.6123C177.859 44.517 177.999 44.4425 178.162 44.3904C178.323 44.3383 178.498 44.313 178.688 44.313C178.928 44.313 179.169 44.3517 179.413 44.4276C179.657 44.5036 179.878 44.6064 180.077 44.7344L179.815 45.1634C179.636 45.0502 179.447 44.9608 179.251 44.8938C179.054 44.8268 178.861 44.794 178.672 44.794C178.443 44.794 178.26 44.8476 178.127 44.9534C177.993 45.0591 177.925 45.1917 177.925 45.3481V45.363C177.925 45.4508 177.952 45.5298 178.008 45.5953C178.063 45.6623 178.136 45.7204 178.228 45.7696C178.32 45.8187 178.425 45.8634 178.545 45.9021C178.665 45.9408 178.789 45.981 178.919 46.0198C179.069 46.0644 179.217 46.1136 179.363 46.1672C179.51 46.2208 179.643 46.2908 179.763 46.3742C179.883 46.4576 179.978 46.5589 180.05 46.6766C180.122 46.7942 180.158 46.9402 180.158 47.113V47.1279C180.159 47.3096 180.122 47.4704 180.05 47.6119Z" fill="#666666"/>
<path d="M181.16 48.1987V47.4228H181.847V48.1987H181.16Z" fill="#666666"/>
<path d="M182.625 3.26316V6.65443H181.682V3.26316H180.379V2.40082H183.928V3.26316H182.625Z" fill="black"/>
<path d="M188.004 6.65443V3.87678L186.798 5.6938H186.774L185.58 3.89465V6.65295H184.649V2.40082H185.665L186.791 4.19997L187.918 2.40082H188.934V6.65443H188.004Z" fill="black"/>
</g>
<defs>
<clipPath id="clip0_945_972">
<rect width="189" height="49" fill="white"/>
</clipPath>
</defs>
</svg>
